# xmcd CD database file
#
# Track frame offsets:
#	150
#	13261
#	30820
#	44288
#	59133
#	71300
#	84231
#	92681
#	108658
#	122916
#	134586
#	149160
#	162022
#	177091
#	190749
#	207428
#	216626
#	226080
#	244006
#
# Disc length: 3531 seconds
#
# Revision: 0
# Processed by: cddbd v1.4PL0 Copyright (c) Steve Scherf et al.
# Submitted via: CDex 1.50
#
DISCID=130dc913
DTITLE=Count Basie - The Memorial Album
DYEAR=1999
DGENRE=Jazz
TTITLE0=Jumpin' At The Woodside
TTITLE1=Lester Leaps In
TTITLE2=I Got It Bad And That Ain't Good
TTITLE3=Two For The Blues
TTITLE4=April In Paris
TTITLE5=Summertime
TTITLE6=Lullaby Of Birdland
TTITLE7=Good Times Blues
TTITLE8=Please Don't Talk About Me When I'm Gone
TTITLE9=I Never Knew
TTITLE10=Ain't It The Truth
TTITLE11=Rockin' The Blues
TTITLE12=Time Alone Will Tell
TTITLE13=Tush
TTITLE14=Harvard Blues
TTITLE15=Shake, Rattle And Roll
TTITLE16=Chicago
TTITLE17=Making Whoopee
TTITLE18=A Night In Tunisia
EXTD=YEAR: 1999
EXTT0=
EXTT1=
EXTT2=
EXTT3=
EXTT4=
EXTT5=
EXTT6=
EXTT7=
EXTT8=
EXTT9=
EXTT10=
EXTT11=
EXTT12=
EXTT13=
EXTT14=
EXTT15=
EXTT16=
EXTT17=
EXTT18=
PLAYORDER=
